<svg xmlns="http://www.w3.org/2000/svg" width="1024" height="768"><g fill="#2f3138" style="font-style:normal;font-weight:700;font-size:72px;line-height:1;font-family:&quot;Brandmark1 Bold&quot;;font-variant-ligatures:normal;text-align:center;text-anchor:middle"><path d="M312.612-32.976 322.62 2.52h9.792l17.928-56.16h-11.952L327.66-18.864l-9.72-34.776h-10.656l-9.792 34.776-10.728-34.776H274.74l17.856 56.16h9.792z" style="font-style:normal;font-weight:700;font-size:72px;line-height:1;font-family:&quot;Brandmark1 Bold&quot;;font-variant-ligatures:normal;text-align:center;text-anchor:middle" transform="matrix(.83 0 0 .83 69.393 399.09)"/><path d="M386.019-18.936V2.52h11.304v-56.16h-11.304v23.976h-21.672V-53.64h-11.304V2.52h11.304v-21.456z" style="font-style:normal;font-weight:700;font-size:72px;line-height:1;font-family:&quot;Brandmark1 Bold&quot;;font-variant-ligatures:normal;text-align:center;text-anchor:middle" transform="matrix(.83 0 0 .83 72.713 399.09)"/><path d="M405.293-50.04V2.52h11.304v-56.16z" style="font-style:normal;font-weight:700;font-size:72px;line-height:1;font-family:&quot;Brandmark1 Bold&quot;;font-variant-ligatures:normal;text-align:center;text-anchor:middle" transform="matrix(.83 0 0 .83 76.033 399.09)"/><path d="M441.9 2.952c5.113 0 9.937-1.512 13.465-4.176 1.944-1.512 3.456-3.312 4.536-5.4 1.08-2.232 1.656-4.68 1.656-7.344 0-4.896-1.656-8.712-5.184-11.52-2.88-2.448-6.768-3.96-10.872-5.544-.432-.216-.936-.36-1.368-.576-2.952-1.08-5.688-2.16-7.416-3.312-1.152-.864-1.944-1.8-1.944-3.456.072-3.672 3.6-4.968 6.624-4.968 3.24 0 7.128 1.656 10.728 4.608l2.016 1.656 6.912-9-1.944-1.512c-5.328-4.32-11.448-6.552-17.712-6.552-4.824 0-9.36 1.584-12.744 4.536-3.456 3.024-5.4 7.056-5.4 11.52 0 2.52.576 4.896 1.584 6.912 1.008 1.872 2.304 3.456 4.176 4.896 3.168 2.52 7.056 4.104 11.16 5.616.216.072.504.144.792.288 2.952 1.08 5.472 2.088 7.056 3.24 1.44 1.008 1.944 2.16 1.944 3.888 0 1.584-.576 2.808-1.872 3.744-1.368 1.008-3.6 1.584-6.12 1.584-2.16 0-4.392-.504-6.48-1.512a16.342 16.342 0 0 1-5.688-4.464l-1.872-2.376-7.488 8.856 1.512 1.656c5.256 5.616 12.384 8.712 19.944 8.712z" style="font-style:normal;font-weight:700;font-size:72px;line-height:1;font-family:&quot;Brandmark1 Bold&quot;;font-variant-ligatures:normal;text-align:center;text-anchor:middle" transform="matrix(.83 0 0 .83 79.353 399.09)"/><path d="M486.762-53.64h-20.376V2.52h11.304v-19.512h7.992c2.952 0 5.616-.36 7.992-1.08a19.087 19.087 0 0 0 6.624-3.312 16.283 16.283 0 0 0 4.392-5.904c1.008-2.304 1.512-5.04 1.512-7.992 0-5.4-1.584-9.936-4.68-13.104-3.384-3.456-8.352-5.256-14.76-5.256zm-1.656 25.92h-7.416v-15.192h8.424c2.808 0 5.04.648 6.48 1.944 1.368 1.224 2.088 3.096 2.088 5.544 0 2.376-.72 4.248-2.016 5.472-1.656 1.512-4.176 2.232-7.56 2.232z" style="font-style:normal;font-weight:700;font-size:72px;line-height:1;font-family:&quot;Brandmark1 Bold&quot;;font-variant-ligatures:normal;text-align:center;text-anchor:middle" transform="matrix(.83 0 0 .83 82.673 399.09)"/><path d="M510.543-53.64V2.52h36.36V-8.208h-25.056v-11.88h25.056v-10.728h-25.056v-12.096h25.056V-53.64Z" style="font-style:normal;font-weight:700;font-size:72px;line-height:1;font-family:&quot;Brandmark1 Bold&quot;;font-variant-ligatures:normal;text-align:center;text-anchor:middle" transform="matrix(.83 0 0 .83 85.993 399.09)"/><path d="m597.069 2.52-14.832-21.168c2.952-1.08 5.4-2.664 7.2-4.824 2.664-3.024 3.96-6.984 3.96-11.808 0-5.4-1.656-9.864-4.752-13.104-1.656-1.728-3.744-3.024-6.192-3.888-2.448-.936-5.328-1.368-8.496-1.368h-20.664V2.52h11.304v-45.432h8.496c2.88 0 5.184.648 6.624 1.944 1.44 1.224 2.16 3.096 2.16 5.544 0 2.376-.72 4.176-2.088 5.472-1.584 1.512-4.176 2.232-7.56 2.232h-2.16v10.944L583.46 2.52z" style="font-style:normal;font-weight:700;font-size:72px;line-height:1;font-family:&quot;Brandmark1 Bold&quot;;font-variant-ligatures:normal;text-align:center;text-anchor:middle" transform="matrix(.83 0 0 .83 89.313 399.09)"/><path d="M599.558-53.64V2.52h36.36V-8.208h-25.056v-11.88h25.056v-10.728h-25.056v-12.096h25.056V-53.64Z" style="font-style:normal;font-weight:700;font-size:72px;line-height:1;font-family:&quot;Brandmark1 Bold&quot;;font-variant-ligatures:normal;text-align:center;text-anchor:middle" transform="matrix(.83 0 0 .83 92.633 399.09)"/><path d="m686.084 2.52-14.832-21.168c2.952-1.08 5.4-2.664 7.2-4.824 2.664-3.024 3.96-6.984 3.96-11.808 0-5.4-1.656-9.864-4.752-13.104-1.656-1.728-3.744-3.024-6.192-3.888-2.448-.936-5.328-1.368-8.496-1.368h-20.664V2.52h11.304v-45.432h8.496c2.88 0 5.184.648 6.624 1.944 1.44 1.224 2.16 3.096 2.16 5.544 0 2.376-.72 4.176-2.088 5.472-1.584 1.512-4.176 2.232-7.56 2.232h-2.16v10.944L672.476 2.52z" style="font-style:normal;font-weight:700;font-size:72px;line-height:1;font-family:&quot;Brandmark1 Bold&quot;;font-variant-ligatures:normal;text-align:center;text-anchor:middle" transform="matrix(.83 0 0 .83 95.953 399.09)"/><path d="M691.988.504a4.21 4.21 0 0 0 4.248-4.248 4.21 4.21 0 0 0-4.248-4.248c-2.376 0-4.32 1.872-4.32 4.248 0 2.376 1.944 4.248 4.32 4.248z" style="font-style:normal;font-weight:700;font-size:72px;line-height:1;font-family:&quot;Brandmark1 Bold&quot;;font-variant-ligatures:normal;text-align:center;text-anchor:middle" transform="matrix(.83 0 0 .83 99.273 399.09)"/><path d="M693.884 6.984v10.8c5.4 0 10.512-2.088 14.328-5.976 3.816-3.816 5.904-8.856 5.904-14.328v-36.216l-10.8 3.6V-2.52c0 5.256-4.248 9.504-9.432 9.504z" style="font-style:normal;font-weight:700;font-size:72px;line-height:1;font-family:&quot;Brandmark1 Bold&quot;;font-variant-ligatures:normal;text-align:center;text-anchor:middle" transform="matrix(.83 0 0 .83 102.593 399.09)"/><path d="M717.76 2.952h16.848c7.272 0 13.176-5.904 13.176-13.176s-5.904-13.248-13.176-13.248h-3.024a1.859 1.859 0 0 1-1.872-1.872c0-1.008.864-1.872 1.872-1.872h15.048V-38.52h-15.048c-7.272 0-13.176 5.904-13.176 13.176s5.904 13.176 13.176 13.176h3.024c1.008 0 1.872.864 1.872 1.944a1.859 1.859 0 0 1-1.872 1.872H717.76z" style="font-style:normal;font-weight:700;font-size:72px;line-height:1;font-family:&quot;Brandmark1 Bold&quot;;font-variant-ligatures:normal;text-align:center;text-anchor:middle" transform="matrix(.83 0 0 .83 105.913 399.09)"/></g></svg>