<svg width="539" height="86" viewBox="0 0 539 86" fill="none" xmlns="http://www.w3.org/2000/svg"><g clip-path="url(#a)"><path d="M0 86h506l33-86H33L0 86Z" fill="#1E1E1E"/><path d="m79.434 37.183 8.306 29.462h8.128l14.88-46.613h-9.92l-8.904 28.864-8.068-28.864h-8.844l-8.128 28.864-8.904-28.864H48l14.82 46.613h8.128l8.486-29.462Z" fill="#5C6DFC"/><path d="M140.361 48.836v17.809h9.382V20.032h-9.382v19.9h-17.988v-19.9h-9.382v46.613h9.382V48.836h17.988Z" fill="#676BEE"/><path d="M156.359 23.02v43.625h9.382V20.032l-9.382 2.988Z" fill="#736AE1"/><path d="M186.743 67.003c4.243 0 8.247-1.255 11.175-3.466 1.614-1.255 2.869-2.749 3.765-4.482.897-1.852 1.375-3.884 1.375-6.095 0-4.064-1.375-7.231-4.303-9.562-2.391-2.032-5.618-3.287-9.024-4.602-.358-.179-.777-.298-1.135-.478-2.45-.896-4.721-1.792-6.156-2.749-.956-.717-1.613-1.494-1.613-2.868.06-3.048 2.988-4.123 5.498-4.123 2.689 0 5.916 1.374 8.904 3.824l1.673 1.375 5.737-7.47-1.613-1.255c-4.422-3.586-9.502-5.439-14.701-5.439-4.004 0-7.769 1.315-10.578 3.765-2.868 2.51-4.482 5.857-4.482 9.562 0 2.092.478 4.064 1.315 5.737.837 1.554 1.912 2.868 3.466 4.064 2.63 2.091 5.857 3.406 9.263 4.66.179.06.418.12.657.24 2.45.896 4.542 1.733 5.857 2.69 1.195.836 1.613 1.792 1.613 3.226 0 1.315-.478 2.33-1.554 3.108-1.135.836-2.988 1.314-5.079 1.314-1.793 0-3.645-.418-5.379-1.255a13.573 13.573 0 0 1-4.721-3.705l-1.553-1.972-6.215 7.35 1.255 1.375c4.362 4.661 10.278 7.231 16.553 7.231Z" fill="#7E68D3"/><path d="M223.978 20.032h-16.912v46.613h9.383V50.45h6.633c2.45 0 4.661-.3 6.633-.897a15.84 15.84 0 0 0 5.498-2.749 13.517 13.517 0 0 0 3.646-4.9c.836-1.912 1.254-4.183 1.254-6.633 0-4.482-1.314-8.247-3.884-10.877-2.809-2.868-6.932-4.362-12.251-4.362Zm-1.374 21.513h-6.155V28.936h6.991c2.331 0 4.184.538 5.379 1.614 1.135 1.015 1.733 2.57 1.733 4.601 0 1.972-.598 3.526-1.673 4.542-1.375 1.255-3.466 1.852-6.275 1.852Z" fill="#8966C5"/><path d="M243.716 20.032v46.613h30.179V57.74h-20.797v-9.86h20.797v-8.904h-20.797v-10.04h20.797v-8.904h-30.179Z" fill="#9565B8"/><path d="m315.532 66.645-12.31-17.57c2.45-.896 4.482-2.21 5.976-4.004 2.211-2.51 3.287-5.796 3.287-9.8 0-4.482-1.375-8.188-3.944-10.877-1.375-1.434-3.108-2.51-5.14-3.227-2.032-.777-4.422-1.135-7.051-1.135h-17.152v46.613h9.383V28.936h7.051c2.391 0 4.303.538 5.498 1.614 1.196 1.015 1.793 2.57 1.793 4.601 0 1.972-.597 3.466-1.733 4.542-1.315 1.255-3.466 1.852-6.275 1.852h-1.793v9.084l11.116 16.016h11.294Z" fill="#A063AA"/><path d="M317.599 20.032v46.613h30.179V57.74h-20.797v-9.86h20.797v-8.904h-20.797v-10.04h20.797v-8.904h-30.179Z" fill="#AC629D"/><path d="m389.415 66.645-12.31-17.57c2.45-.896 4.482-2.21 5.976-4.004 2.211-2.51 3.287-5.796 3.287-9.8 0-4.482-1.375-8.188-3.944-10.877-1.375-1.434-3.108-2.51-5.14-3.227-2.032-.777-4.422-1.135-7.052-1.135h-17.151v46.613h9.383V28.936h7.051c2.391 0 4.303.538 5.498 1.614 1.195 1.015 1.793 2.57 1.793 4.601 0 1.972-.598 3.466-1.733 4.542-1.315 1.255-3.466 1.852-6.275 1.852h-1.793v9.084l11.116 16.016h11.294Z" fill="#B7608F"/><path d="M394.316 64.971a3.495 3.495 0 0 0 3.526-3.526 3.495 3.495 0 0 0-3.526-3.525c-1.972 0-3.586 1.553-3.586 3.526 0 1.972 1.614 3.525 3.586 3.525Z" fill="#C25E81"/><path d="M448.239 37.72c-2.749-2.748-6.335-4.242-10.159-4.242-3.765 0-7.231 1.434-9.921 3.944-2.689-2.51-6.155-3.944-9.86-3.944-1.912 0-3.765.358-5.438 1.075V33h-8.964v33.645h8.964V47.88c0-2.988 2.45-5.438 5.438-5.438 2.928 0 5.379 2.45 5.379 5.438v18.765h8.964V47.88c0-2.988 2.45-5.438 5.438-5.438 2.928 0 5.378 2.45 5.378 5.438v18.765h8.964V47.88c0-3.825-1.494-7.47-4.183-10.16Z" fill="#CE5D74"/><path d="M456.173 56.665c.837 2.032 2.092 3.824 3.645 5.438 1.554 1.554 3.407 2.749 5.438 3.645 2.092.837 4.303 1.315 6.634 1.315 2.271 0 4.482-.478 6.633-1.315 1.972-.896 3.825-2.091 5.379-3.645 1.553-1.614 2.808-3.406 3.645-5.438a16.912 16.912 0 0 0 1.374-6.634V20.988L479.957 18v17.032l-1.434-.717c-2.151-.837-4.362-1.315-6.633-1.315-2.331 0-4.542.478-6.634 1.315-2.031.896-3.884 2.091-5.438 3.645-1.553 1.613-2.808 3.406-3.645 5.438-.896 2.092-1.315 4.362-1.315 6.633s.419 4.542 1.315 6.634Zm15.717-14.701c4.422 0 8.067 3.645 8.067 8.067 0 4.423-3.645 8.068-8.067 8.068-4.482 0-8.068-3.645-8.068-8.068 0-4.422 3.586-8.067 8.068-8.067Z" fill="#D95B66"/></g><defs><clipPath id="a"><path fill="#fff" d="M0 0h539v86H0z"/></clipPath></defs></svg>