<svg width="515" height="95" viewBox="0 0 515 95" fill="none" xmlns="http://www.w3.org/2000/svg"><g clip-path="url(#a)"><path d="M31 0v95H0L31 0Zm453 95V0h31l-31 95ZM31 95h453V0H31v95Z" fill="#F5B220"/><path d="m76.434 40.57 8.306 29.46h8.128l14.88-46.613h-9.92l-8.904 28.864-8.068-28.864h-8.844l-8.128 28.864-8.904-28.864H45L59.82 70.03h8.128l8.486-29.462Zm64.247 11.653V70.03h9.382V23.418h-9.382v19.9h-17.988v-19.9h-9.382v46.613h9.382V52.223h17.988Zm19.318-25.817v43.625h9.382V23.418l-9.382 2.988Zm33.704 43.984c4.243 0 8.247-1.255 11.175-3.466 1.614-1.255 2.869-2.75 3.765-4.482.897-1.853 1.375-3.885 1.375-6.096 0-4.064-1.375-7.23-4.303-9.561-2.39-2.032-5.618-3.287-9.024-4.602-.358-.18-.777-.299-1.135-.478-2.45-.896-4.721-1.793-6.156-2.75-.956-.716-1.613-1.493-1.613-2.868.06-3.047 2.988-4.123 5.498-4.123 2.689 0 5.916 1.375 8.904 3.825l1.673 1.374 5.737-7.47-1.613-1.255C203.564 24.853 198.484 23 193.285 23c-4.004 0-7.769 1.315-10.578 3.765-2.868 2.51-4.482 5.856-4.482 9.562 0 2.091.478 4.063 1.315 5.736.837 1.554 1.912 2.869 3.466 4.064 2.63 2.092 5.857 3.406 9.263 4.661.179.06.418.12.657.24 2.45.896 4.542 1.733 5.857 2.689 1.195.836 1.613 1.792 1.613 3.227 0 1.314-.478 2.33-1.553 3.107-1.136.837-2.988 1.315-5.08 1.315-1.793 0-3.645-.418-5.378-1.255a13.566 13.566 0 0 1-4.722-3.705l-1.553-1.972-6.215 7.35 1.255 1.375c4.362 4.661 10.278 7.23 16.553 7.23Zm40.555-46.972h-16.912v46.613h9.383V53.836h6.633c2.45 0 4.661-.299 6.633-.896a15.84 15.84 0 0 0 5.498-2.75 13.517 13.517 0 0 0 3.646-4.9c.836-1.912 1.254-4.183 1.254-6.633 0-4.482-1.314-8.247-3.884-10.876-2.809-2.869-6.932-4.363-12.251-4.363Zm-1.374 21.514h-6.155v-12.61h6.991c2.331 0 4.184.538 5.379 1.614 1.135 1.016 1.733 2.57 1.733 4.602 0 1.972-.598 3.526-1.673 4.541-1.375 1.255-3.466 1.853-6.275 1.853Zm24.432-21.514v46.613h30.179v-8.904h-20.797v-9.86h20.797v-8.905h-20.797v-10.04h20.797v-8.904h-30.179Zm75.136 46.613-12.31-17.57c2.45-.896 4.482-2.21 5.976-4.003 2.211-2.51 3.287-5.797 3.287-9.8 0-4.483-1.375-8.188-3.944-10.877-1.375-1.434-3.108-2.51-5.14-3.227-2.032-.777-4.422-1.136-7.051-1.136h-17.152v46.613h9.383V32.323h7.051c2.391 0 4.303.537 5.498 1.613 1.195 1.016 1.793 2.57 1.793 4.602 0 1.972-.597 3.466-1.733 4.541-1.315 1.255-3.466 1.853-6.275 1.853h-1.793v9.084l11.116 16.015h11.294Zm5.387-46.613v46.613h30.179v-8.904h-20.797v-9.86h20.797v-8.905h-20.797v-10.04h20.797v-8.904h-30.179Zm75.136 46.613-12.31-17.57c2.45-.896 4.482-2.21 5.976-4.003 2.211-2.51 3.287-5.797 3.287-9.8 0-4.483-1.375-8.188-3.944-10.877-1.375-1.434-3.108-2.51-5.14-3.227-2.032-.777-4.422-1.136-7.052-1.136h-17.151v46.613h9.383V32.323h7.051c2.391 0 4.303.537 5.498 1.613 1.195 1.016 1.793 2.57 1.793 4.602 0 1.972-.598 3.466-1.733 4.541-1.315 1.255-3.466 1.853-6.275 1.853h-1.793v9.084l11.116 16.015h11.294Zm8.221-1.673a3.495 3.495 0 0 0 3.526-3.526 3.495 3.495 0 0 0-3.526-3.526c-1.972 0-3.586 1.554-3.586 3.526 0 1.972 1.614 3.526 3.586 3.526Zm4.893 5.378V82.7c4.482 0 8.725-1.733 11.892-4.96 3.168-3.167 4.901-7.35 4.901-11.892v-30.06l-8.964 2.989v27.07c0 4.363-3.526 7.89-7.829 7.89Zm23.137-3.346h13.984c6.036 0 10.936-4.9 10.936-10.936s-4.9-10.996-10.936-10.996h-2.51a1.543 1.543 0 0 1-1.554-1.554c0-.837.717-1.554 1.554-1.554h12.49v-9.382H460.7c-6.036 0-10.936 4.9-10.936 10.936s4.9 10.936 10.936 10.936h2.51c.837 0 1.554.717 1.554 1.614 0 .836-.658 1.553-1.554 1.553h-13.984v9.383Z" fill="#2F3138"/></g><defs><clipPath id="a"><path fill="#fff" d="M0 0h515v95H0z"/></clipPath></defs></svg>