<svg width="515" height="95" viewBox="0 0 515 95" fill="none" xmlns="http://www.w3.org/2000/svg">
<g clip-path="url(#clip0_1_2)">
<path d="M31 0V95H0L31 0Z" fill="#F5B220"/>
<path d="M484 95V0H515L484 95Z" fill="#F5B220"/>
<path d="M31 95H484V0H31V95Z" fill="#F5B220"/>
<path d="M76.4338 40.5695L84.7404 70.0311H92.8678L107.748 23.4183H97.8279L88.9236 52.2824L80.856 23.4183H72.0115L63.8842 52.2824L54.9799 23.4183H45L59.8205 70.0311H67.9478L76.4338 40.5695Z" fill="#2F3138"/>
<path d="M140.681 52.2227V70.0311H150.063V23.4183H140.681V43.3184H122.693V23.4183H113.311V70.0311H122.693V52.2227H140.681Z" fill="#2F3138"/>
<path d="M159.999 26.4063V70.0311H169.381V23.4183L159.999 26.4063Z" fill="#2F3138"/>
<path d="M193.703 70.3897C197.946 70.3897 201.95 69.1347 204.878 66.9236C206.492 65.6686 207.747 64.1746 208.643 62.4416C209.54 60.589 210.018 58.5572 210.018 56.3461C210.018 52.2824 208.643 49.1151 205.715 46.7845C203.325 44.7526 200.097 43.4977 196.691 42.183C196.333 42.0037 195.914 41.8842 195.556 41.7049C193.106 40.8085 190.835 39.9121 189.4 38.9559C188.444 38.2388 187.787 37.4619 187.787 36.0874C187.847 33.0397 190.775 31.964 193.285 31.964C195.974 31.964 199.201 33.3385 202.189 35.7886L203.862 37.1631L209.599 29.6931L207.986 28.4382C203.564 24.8526 198.484 23 193.285 23C189.281 23 185.516 24.3147 182.707 26.7649C179.839 29.2748 178.225 32.6214 178.225 36.3265C178.225 38.4181 178.703 40.3902 179.54 42.0634C180.377 43.6172 181.452 44.9319 183.006 46.1271C185.636 48.2187 188.863 49.5334 192.269 50.7884C192.448 50.8482 192.687 50.9079 192.926 51.0274C195.376 51.9238 197.468 52.7605 198.783 53.7166C199.978 54.5533 200.396 55.5094 200.396 56.9437C200.396 58.2584 199.918 59.2743 198.843 60.0512C197.707 60.8878 195.855 61.3659 193.763 61.3659C191.97 61.3659 190.118 60.9476 188.385 60.111C186.592 59.2743 184.918 57.9596 183.663 56.4058L182.11 54.4338L175.895 61.7842L177.15 63.1587C181.512 67.82 187.428 70.3897 193.703 70.3897Z" fill="#2F3138"/>
<path d="M234.258 23.4183H217.346V70.0311H226.729V53.8362H233.362C235.812 53.8362 238.023 53.5374 239.995 52.9398C242.147 52.3422 243.939 51.386 245.493 50.1908C247.047 48.8761 248.302 47.2028 249.139 45.2905C249.975 43.3782 250.393 41.1073 250.393 38.6571C250.393 34.1751 249.079 30.4103 246.509 27.7808C243.7 24.9123 239.577 23.4183 234.258 23.4183ZM232.884 44.9319H226.729V32.3226H233.72C236.051 32.3226 237.904 32.8604 239.099 33.9361C240.234 34.952 240.832 36.5058 240.832 38.5376C240.832 40.5097 240.234 42.0635 239.159 43.0794C237.784 44.3343 235.693 44.9319 232.884 44.9319Z" fill="#2F3138"/>
<path d="M257.316 23.4183V70.0311H287.495V61.1269H266.698V51.2665H287.495V42.3623H266.698V32.3226H287.495V23.4183H257.316Z" fill="#2F3138"/>
<path d="M332.452 70.0311L320.142 52.4617C322.592 51.5653 324.624 50.2506 326.118 48.4578C328.329 45.9479 329.405 42.6611 329.405 38.6571C329.405 34.1751 328.03 30.47 325.461 27.7808C324.086 26.3466 322.353 25.2709 320.321 24.5538C318.289 23.7769 315.899 23.4183 313.27 23.4183H296.118V70.0311H305.501V32.3226H312.552C314.943 32.3226 316.855 32.8604 318.05 33.9361C319.245 34.952 319.843 36.5058 319.843 38.5376C319.843 40.5097 319.246 42.0037 318.11 43.0794C316.795 44.3343 314.644 44.9319 311.835 44.9319H310.042V54.0155L321.158 70.0311H332.452Z" fill="#2F3138"/>
<path d="M337.839 23.4183V70.0311H368.018V61.1269H347.221V51.2665H368.018V42.3623H347.221V32.3226H368.018V23.4183H337.839Z" fill="#2F3138"/>
<path d="M412.975 70.0311L400.665 52.4617C403.115 51.5653 405.147 50.2506 406.641 48.4578C408.852 45.9479 409.928 42.6611 409.928 38.6571C409.928 34.1751 408.553 30.47 405.984 27.7808C404.609 26.3466 402.876 25.2709 400.844 24.5538C398.812 23.7769 396.422 23.4183 393.792 23.4183H376.641V70.0311H386.024V32.3226H393.075C395.466 32.3226 397.378 32.8604 398.573 33.9361C399.768 34.952 400.366 36.5058 400.366 38.5376C400.366 40.5097 399.768 42.0037 398.633 43.0794C397.318 44.3343 395.167 44.9319 392.358 44.9319H390.565V54.0155L401.681 70.0311H412.975Z" fill="#2F3138"/>
<path d="M421.196 68.3579C423.168 68.3579 424.722 66.8041 424.722 64.832C424.722 62.8599 423.168 61.3062 421.196 61.3062C419.224 61.3062 417.61 62.8599 417.61 64.832C417.61 66.8041 419.224 68.3579 421.196 68.3579Z" fill="#2F3138"/>
<path d="M426.089 73.7362V82.7002C430.571 82.7002 434.814 80.9672 437.981 77.7402C441.149 74.5729 442.882 70.3897 442.882 65.8479V35.7886L433.918 38.7766V65.8479C433.918 70.2104 430.392 73.7362 426.089 73.7362Z" fill="#2F3138"/>
<path d="M449.226 70.3897H463.21C469.246 70.3897 474.146 65.4894 474.146 59.4536C474.146 53.4178 469.246 48.4578 463.21 48.4578H460.7C459.863 48.4578 459.146 47.8004 459.146 46.904C459.146 46.0674 459.863 45.3502 460.7 45.3502H473.19V35.9679H460.7C454.664 35.9679 449.764 40.8682 449.764 46.904C449.764 52.9398 454.664 57.8401 460.7 57.8401H463.21C464.047 57.8401 464.764 58.5572 464.764 59.4536C464.764 60.2902 464.106 61.0074 463.21 61.0074H449.226V70.3897Z" fill="#2F3138"/>
</g>
<defs>
<clipPath id="clip0_1_2">
<rect width="515" height="95" fill="white"/>
</clipPath>
</defs>
</svg>
